<?xml version="1.0" encoding="UTF-8" standalone="no"?>
<!-- Created with Inkscape (http://www.inkscape.org/) -->

<svg
   width="81.140305mm"
   height="102.56839mm"
   viewBox="0 0 81.140305 102.56839"
   version="1.1"
   id="svg1"
   xml:space="preserve"
   inkscape:version="1.4.3 (0d15f75042, 2025-12-25)"
   sodipodi:docname="logo.svg"
   xmlns:inkscape="http://www.inkscape.org/namespaces/inkscape"
   xmlns:sodipodi="http://sodipodi.sourceforge.net/DTD/sodipodi-0.dtd"
   xmlns="http://www.w3.org/2000/svg"
   xmlns:svg="http://www.w3.org/2000/svg"><sodipodi:namedview
     id="namedview1"
     pagecolor="#ffffff"
     bordercolor="#111111"
     borderopacity="1"
     inkscape:showpageshadow="0"
     inkscape:pageopacity="0"
     inkscape:pagecheckerboard="1"
     inkscape:deskcolor="#d1d1d1"
     inkscape:document-units="mm"
     inkscape:zoom="0.75654374"
     inkscape:cx="233.29781"
     inkscape:cy="-97.152347"
     inkscape:current-layer="layer1" /><defs
     id="defs1"><inkscape:path-effect
       effect="fillet_chamfer"
       id="path-effect10"
       is_visible="true"
       lpeversion="1"
       nodesatellites_param="F,0,0,1,0,0,0,1 @ F,0,0,1,0,0.93826777,0,1 @ F,0,0,1,0,0.44256608,0,1 @ F,0,1,1,0,0.44256608,0,1 @ F,0,0,1,0,0,0,1 @ F,0,0,1,0,0,0,1 @ F,0,0,1,0,0,0,1"
       radius="0"
       unit="px"
       method="auto"
       mode="F"
       chamfer_steps="1"
       flexible="false"
       use_knot_distance="true"
       apply_no_radius="true"
       apply_with_radius="true"
       only_selected="false"
       hide_knots="false" /><inkscape:path-effect
       effect="fillet_chamfer"
       id="path-effect9"
       is_visible="true"
       lpeversion="1"
       nodesatellites_param="F,0,0,1,0,1.7470907,0,1 @ F,0,1,1,0,1.7470907,0,1 @ F,0,1,1,0,1.7470907,0,1 @ F,0,1,1,0,1.7470907,0,1"
       radius="0"
       unit="px"
       method="auto"
       mode="F"
       chamfer_steps="1"
       flexible="false"
       use_knot_distance="true"
       apply_no_radius="true"
       apply_with_radius="true"
       only_selected="false"
       hide_knots="false" /><inkscape:path-effect
       effect="fillet_chamfer"
       id="path-effect9-6"
       is_visible="true"
       lpeversion="1"
       nodesatellites_param="F,0,0,1,0,1.7470907,0,1 @ F,0,1,1,0,1.7470907,0,1 @ F,0,1,1,0,1.7470907,0,1 @ F,0,1,1,0,1.7470907,0,1"
       radius="0"
       unit="px"
       method="auto"
       mode="F"
       chamfer_steps="1"
       flexible="false"
       use_knot_distance="true"
       apply_no_radius="true"
       apply_with_radius="true"
       only_selected="false"
       hide_knots="false" /></defs><g
     inkscape:label="Layer 1"
     inkscape:groupmode="layer"
     id="layer1"
     transform="translate(-24.354276,-149.19414)"><path
       style="font-size:128.766px;line-height:0.7;font-family:Densmore;-inkscape-font-specification:'Densmore, Normal';fill-rule:evenodd;stroke-width:0.319698"
       d="M 59.88055,151.76252 H 25.085223 v 3.94738 c 0,16.81286 9.356725,23.83041 23.391813,23.83041 z"
       id="path3" /><path
       style="font-size:128.766px;line-height:0.7;font-family:Densmore;-inkscape-font-specification:'Densmore, Normal';fill-rule:evenodd;stroke-width:0.319698"
       d="m 105.49458,251.76253 v -3.94738 c 0,-16.81286 -9.35671,-23.8304 -23.39182,-23.8304 h -1.46198 l -11.69591,27.77778 z"
       id="path2" /><circle
       id="path4"
       style="fill:#ffffff;stroke:#000000;stroke-width:0.264583"
       cx="68.449562"
       cy="155.37868"
       r="0.035169844" /><circle
       id="path5"
       style="fill:#ffffff;stroke:#000000;stroke-width:0.264583"
       cx="95.528252"
       cy="156.98608"
       r="0.035169844" /><g
       id="g10"
       transform="translate(-21.017095,-7.483243)"><path
         id="text2-0"
         style="font-size:128.766px;line-height:0.7;font-family:Densmore;-inkscape-font-specification:'Densmore, Normal';fill-rule:evenodd;stroke-width:0.319698"
         d="M 89.234523,245.61781 H 51.097316 l -5.725945,13.59917 h 38.157357 z" /><path
         id="path9"
         style="font-size:128.766px;line-height:0.7;font-family:Densmore;-inkscape-font-specification:'Densmore, Normal';fill-rule:evenodd;stroke-width:0.279752"
         d="M 92.485436,238.30309 H 53.993292 a 1.4177552,2.1533056 50.943299 0 0 -2.482729,1.74709 L 50.45545,242.556 a 1.4175071,2.1529287 50.943299 0 0 1.011452,1.74709 h 38.505819 a 1.4145276,2.1484034 50.943299 0 0 2.478746,-1.74709 l 1.049894,-2.50582 a 1.4207415,2.1578412 50.943299 0 0 -1.015435,-1.74709 z" /><path
         id="path9-9"
         style="font-size:128.766px;line-height:0.7;font-family:Densmore;-inkscape-font-specification:'Densmore, Normal';fill-rule:evenodd;stroke-width:0.279752"
         d="m 81.008492,174.13046 a 1.4177552,2.1533056 50.943299 0 0 -2.482536,1.74718 l -1.055233,2.50579 a 1.4175071,2.1529287 50.943299 0 0 1.011308,1.74718 h 30.059149 v -6.00015 z m 39.008468,0.0899 v 2.84996 l 0.49971,-1.19269 a 1.4207415,2.1578412 50.943299 0 0 -0.49971,-1.65727 z" /><path
         id="path8"
         style="font-size:128.766px;line-height:0.7;font-family:Densmore;-inkscape-font-specification:'Densmore, Normal';fill-rule:evenodd;stroke-width:0.319698"
         d="m 78.116679,181.44526 -23.38617,55.54286 h 38.124805 l 20.236496,-48.22858 -0.81546,0.48679 a 1.6040249,1.6040249 0 0 1 -0.82269,0.22738 h -1.97404 a 0.93826777,0.93826777 0 0 1 -0.93844,-0.93845 v -7.09 z" /><path
         id="path6"
         style="font-size:128.766px;line-height:0.7;font-family:Densmore;-inkscape-font-specification:'Densmore, Normal';fill-rule:evenodd;stroke-width:0.319698"
         d="m 87.475798,159.21664 -5.725749,13.59865 h 26.791131 v -13.59865 z m 32.541162,0 v 13.03848 l 5.47047,-13.03848 z" /><rect
         style="fill:#ffffff;fill-opacity:1;fill-rule:evenodd;stroke:none;stroke-width:0.600895"
         id="rect9"
         width="23.24563"
         height="35.819859"
         x="161.937"
         y="203.83018"
         rx="2.0027859"
         transform="matrix(1,0,-0.38799822,0.92166012,0,0)" /><rect
         style="fill:#ffffff;fill-opacity:1;fill-rule:evenodd;stroke:none;stroke-width:0.208807"
         id="rect9-5-7"
         width="23.24563"
         height="4.3252864"
         x="161.95172"
         y="271.7099"
         rx="2.0027859"
         transform="matrix(1,0,-0.38799822,0.92166012,0,0)" /><path
         id="rect10"
         style="fill:#ffffff;fill-opacity:1;fill-rule:evenodd;stroke:#000000;stroke-width:1.52448;stroke-linecap:round;stroke-linejoin:round;stroke-dasharray:none;stroke-opacity:1;paint-order:normal"
         d="m 109.59976,157.43962 v 30.97551 h 1.96386 l 3.77415,-2.12151 3.77412,2.12151 h 1.96338 v -30.97551 z" /></g></g></svg>
